<svg width="100" height="100" viewBox="0 0 100 100" fill="none" xmlns="http://www.w3.org/2000/svg">
<g clip-path="url(#clip0_628_675)">
<path d="M67.7878 91.1305H32.212C31.5648 91.1305 31.0402 90.6058 31.0402 89.9585V62.7137C31.0402 62.0666 31.5648 61.5417 32.212 61.5417H67.7878C68.435 61.5417 68.9598 62.0664 68.9598 62.7137V89.9585C68.9596 90.6058 68.435 91.1305 67.7878 91.1305ZM33.3839 88.7867H66.6161V63.8857H33.3839V88.7867Z" fill="#1E2E36"/>
<path d="M67.7878 96.1447H32.212C31.5648 96.1447 31.0402 95.62 31.0402 94.9727V89.9583C31.0402 89.3112 31.5648 88.7864 32.212 88.7864H67.7878C68.435 88.7864 68.9598 89.311 68.9598 89.9583V94.9727C68.9596 95.62 68.435 96.1447 67.7878 96.1447ZM33.3839 93.8009H66.6161V91.1303H33.3839V93.8009Z" fill="#1E2E36"/>
<path d="M67.7878 63.8856H32.212C31.5648 63.8856 31.0402 63.3609 31.0402 62.7138V51.1624C31.0402 50.5153 31.5648 49.9905 32.212 49.9905H67.7878C68.435 49.9905 68.9598 50.5151 68.9598 51.1624V62.7138C68.9596 63.3609 68.435 63.8856 67.7878 63.8856ZM33.3839 61.5419H66.6161V52.3342H33.3839V61.5419Z" fill="#1E2E36"/>
<path d="M49.9998 60.7356C47.9024 60.7356 46.202 59.0352 46.202 56.9379C46.202 54.8406 47.9024 53.1401 49.9997 53.1401C52.0971 53.1401 53.7975 54.8405 53.7975 56.9378C53.7953 59.0344 52.0963 60.7332 49.9998 60.7356ZM49.9998 55.4839C49.1968 55.4839 48.5458 56.1349 48.5458 56.9378C48.5458 57.7408 49.1968 58.3918 49.9997 58.3918C50.8027 58.3918 51.4537 57.7408 51.4537 56.9379C51.4531 56.1352 50.8025 55.4847 49.9998 55.4839Z" fill="#1E2E36"/>
<path d="M59.8668 60.7356C57.7693 60.7356 56.069 59.0352 56.069 56.9379C56.069 54.8405 57.7693 53.1401 59.8666 53.1401C61.9641 53.1401 63.6644 54.8405 63.6644 56.9378C63.6622 59.0344 61.9632 60.7332 59.8668 60.7356ZM59.8668 55.4839C59.0637 55.4839 58.4127 56.1349 58.4127 56.9378C58.4127 57.7408 59.0637 58.3918 59.8666 58.3918C60.6697 58.3918 61.3207 57.7408 61.3207 56.9379C61.3198 56.1352 60.6695 55.4849 59.8668 55.4839Z" fill="#1E2E36"/>
<path d="M40.133 60.7358C38.0355 60.7358 36.3352 59.0354 36.3352 56.9379C36.3352 54.8405 38.0355 53.1401 40.133 53.1401C42.2305 53.1401 43.9308 54.8405 43.9308 56.9379C43.9285 59.0346 42.2295 60.7334 40.133 60.7358ZM40.133 55.4841C39.33 55.4841 38.679 56.1351 38.679 56.9381C38.679 57.7412 39.33 58.3922 40.133 58.3922C40.9361 58.3922 41.5871 57.7412 41.5871 56.9381C41.5862 56.1354 40.9357 55.4849 40.133 55.4841Z" fill="#1E2E36"/>
<path d="M60.9086 70.7368H39.0915C37.5693 70.7362 36.3359 69.5019 36.3365 67.9798C36.3372 66.4585 37.5702 65.2254 39.0915 65.2249H60.9086C62.4307 65.2242 63.6651 66.4576 63.6656 67.9798C63.6663 69.5019 62.4329 70.7363 60.9107 70.7368C60.9099 70.7368 60.9092 70.7368 60.9086 70.7368ZM39.0915 67.5684C38.8637 67.5686 38.6793 67.7534 38.6795 67.9811C38.6796 68.2086 38.8639 68.3929 39.0915 68.3931H60.9086C61.1363 68.3933 61.3211 68.2088 61.3212 67.9811C61.3214 67.7534 61.1369 67.5686 60.9092 67.5684C60.9091 67.5684 60.9087 67.5684 60.9086 67.5684H39.0915Z" fill="#1E2E36"/>
<path d="M59.8668 87.389H40.133C39.4858 87.389 38.9612 86.8643 38.9612 86.217V69.5648C38.9612 68.9177 39.4858 68.3928 40.133 68.3928H59.8668C60.5139 68.3928 61.0386 68.9175 61.0386 69.5648V86.217C61.0388 86.8643 60.5141 87.389 59.8668 87.389ZM41.3049 85.0452H58.695V70.7367H41.3049V85.0452Z" fill="#1E2E36"/>
<path d="M42.1912 52.3341C41.5441 52.3341 41.0194 51.8095 41.0194 51.1622V48.2542C41.0194 47.6071 41.5441 47.0823 42.1912 47.0823C42.8383 47.0823 43.3632 47.6069 43.3632 48.2542V51.1622C43.3632 51.8095 42.8385 52.3341 42.1912 52.3341Z" fill="#1E2E36"/>
<path d="M47.7467 52.3342C47.0996 52.3342 46.5749 51.8096 46.5749 51.1623V49.426H45.0124C44.3653 49.426 43.8405 48.9013 43.8405 48.254C43.8405 47.6067 44.3651 47.082 45.0124 47.082H47.7467C48.3938 47.082 48.9187 47.6067 48.9187 48.254V51.1623C48.9185 51.8096 48.3938 52.3342 47.7467 52.3342Z" fill="#1E2E36"/>
<path d="M36.6356 52.3342C35.9885 52.3342 35.4636 51.8096 35.4636 51.1623V48.254C35.4636 47.6069 35.9883 47.082 36.6356 47.082H39.3699C40.017 47.082 40.5417 47.6067 40.5417 48.254C40.5417 48.9013 40.017 49.426 39.3699 49.426H37.8074V51.1623C37.8075 51.8096 37.2829 52.3342 36.6356 52.3342Z" fill="#1E2E36"/>
<path d="M57.8088 52.3341C57.1617 52.3341 56.6368 51.8095 56.6368 51.1622V48.2542C56.6368 47.6071 57.1615 47.0823 57.8088 47.0823C58.4561 47.0823 58.9806 47.6069 58.9806 48.2542V51.1622C58.9806 51.8095 58.4559 52.3341 57.8088 52.3341Z" fill="#1E2E36"/>
<path d="M52.2534 52.3342C51.6063 52.3342 51.0814 51.8096 51.0814 51.1623V48.254C51.0814 47.6069 51.6061 47.082 52.2534 47.082H54.9877C55.6348 47.082 56.1596 47.6067 56.1596 48.254C56.1596 48.9013 55.635 49.426 54.9877 49.426H53.4252V51.1623C53.4253 51.8096 52.9007 52.3342 52.2534 52.3342Z" fill="#1E2E36"/>
<path d="M63.3645 52.3342C62.7173 52.3342 62.1927 51.8096 62.1927 51.1623V49.426H60.6302C59.983 49.426 59.4584 48.9013 59.4584 48.254C59.4584 47.6067 59.983 47.082 60.6302 47.082H63.3645C64.0116 47.082 64.5364 47.6067 64.5364 48.254V51.1623C64.5362 51.8096 64.0116 52.3342 63.3645 52.3342Z" fill="#1E2E36"/>
<path d="M73.452 56.6021H71.3542C70.707 56.6021 70.1824 56.0774 70.1824 55.4303C70.1824 54.7831 70.707 54.2583 71.3542 54.2583H73.4521C74.0993 54.2583 74.6239 54.783 74.6239 55.4303C74.6239 56.0776 74.0993 56.6021 73.452 56.6021Z" fill="#1E2E36"/>
<path d="M77.0183 96.1448H67.788C67.1409 96.1448 66.6162 95.6201 66.6162 94.9728V51.1623C66.6162 50.5151 67.1409 49.9905 67.788 49.9905H77.0183C77.6654 49.9905 78.1902 50.5151 78.1902 51.1623V94.9728C78.1901 95.6201 77.6654 96.1448 77.0183 96.1448ZM68.9598 93.801H75.8463V52.3342H68.9598V93.801Z" fill="#1E2E36"/>
<path d="M98.828 74.2395H77.0182C76.3711 74.2395 75.8464 73.7148 75.8464 73.0677V51.1624C75.8464 50.5153 76.3711 49.9905 77.0182 49.9905H98.8282C99.4754 49.9905 100 50.5151 100 51.1624V73.0677C100 73.7148 99.4753 74.2395 98.828 74.2395ZM78.19 71.8958H97.6563V52.3342H78.19V71.8958Z" fill="#1E2E36"/>
<path d="M90.7335 56.6021H85.1127C84.4656 56.6021 83.9409 56.0774 83.9409 55.4303C83.9409 54.7831 84.4656 54.2583 85.1127 54.2583H90.7335C91.3806 54.2583 91.9055 54.783 91.9055 55.4303C91.9055 56.0776 91.3806 56.6021 90.7335 56.6021Z" fill="#1E2E36"/>
<path d="M19.5024 56.6021H13.8816C13.2345 56.6021 12.7098 56.0774 12.7098 55.4303C12.7098 54.7831 13.2345 54.2583 13.8816 54.2583H19.5022C20.1494 54.2583 20.674 54.783 20.674 55.4303C20.674 56.0776 20.1495 56.6021 19.5024 56.6021Z" fill="#1E2E36"/>
<path d="M98.828 96.1448H77.0182C76.3711 96.1448 75.8464 95.6201 75.8464 94.9728V73.0677C75.8464 72.4206 76.3711 71.8958 77.0182 71.8958H98.8282C99.4754 71.8958 100 72.4204 100 73.0677V94.9728C100 95.6201 99.4753 96.1448 98.828 96.1448ZM78.19 93.801H97.6563V74.2395H78.19V93.801Z" fill="#1E2E36"/>
<path d="M90.7335 78.5071H85.1127C84.4656 78.5071 83.9409 77.9824 83.9409 77.3351C83.9409 76.688 84.4656 76.1633 85.1127 76.1633H90.7335C91.3806 76.1633 91.9055 76.688 91.9055 77.3351C91.9053 77.9824 91.3806 78.5071 90.7335 78.5071Z" fill="#1E2E36"/>
<path d="M16.6919 96.1448H1.17179C0.524663 96.1448 0 95.6202 0 94.9729V62.7137C0 62.0666 0.524663 61.5417 1.17179 61.5417H16.6919C17.3391 61.5417 17.8637 62.0664 17.8637 62.7137V94.9729C17.8639 95.6202 17.3392 96.1448 16.6919 96.1448ZM2.34375 93.8011H15.5201V63.8857H2.34375V93.8011Z" fill="#1E2E36"/>
<path d="M32.2121 96.1448H16.6919C16.0448 96.1448 15.5201 95.6202 15.5201 94.9729V62.7137C15.5201 62.0666 16.0448 61.5417 16.6919 61.5417H32.2121C32.8592 61.5417 33.3839 62.0664 33.3839 62.7137V94.9729C33.384 95.6202 32.8594 96.1448 32.2121 96.1448ZM17.8639 93.8011H31.0403V63.8857H17.8639V93.8011Z" fill="#1E2E36"/>
<path d="M20.3975 81.9658C19.7504 81.9658 19.2257 81.4411 19.2257 80.794V76.893C19.2257 76.2459 19.7504 75.7212 20.3975 75.7212C21.0446 75.7212 21.5693 76.2459 21.5693 76.893V80.7942C21.5693 81.4411 21.0446 81.9658 20.3975 81.9658Z" fill="#1E2E36"/>
<path d="M12.9865 81.9658C12.3394 81.9658 11.8147 81.4411 11.8147 80.794V76.893C11.8147 76.2459 12.3394 75.7212 12.9865 75.7212C13.6336 75.7212 14.1583 76.2459 14.1583 76.893V80.7942C14.1583 81.4411 13.6336 81.9658 12.9865 81.9658Z" fill="#1E2E36"/>
<path d="M32.212 63.8856H1.17179C0.524663 63.8856 0 63.3609 0 62.7138V51.1624C0 50.5153 0.524663 49.9905 1.17179 49.9905H32.212C32.8592 49.9905 33.3838 50.5151 33.3838 51.1624V62.7138C33.384 63.3609 32.8593 63.8856 32.212 63.8856ZM2.34375 61.5419H31.0403V52.3342H2.34375V61.5419Z" fill="#1E2E36"/>
<path d="M66.4667 27.7771H33.5331C32.1569 27.7755 31.0417 26.6603 31.0402 25.2841V21.9188C31.0417 20.5426 32.1569 19.4275 33.5331 19.426H66.4669C67.8431 19.4275 68.9583 20.5428 68.9598 21.9189V25.2843C68.9583 26.6603 67.8429 27.7755 66.4667 27.7771ZM33.5331 21.7696C33.4508 21.7698 33.3841 21.8365 33.3839 21.9188V25.2841C33.3841 25.3664 33.4508 25.4331 33.5331 25.4333H66.4669C66.5492 25.4331 66.6159 25.3664 66.6161 25.2841V21.9188C66.6159 21.8365 66.5492 21.7698 66.4669 21.7696H33.5331Z" fill="#1E2E36"/>
<path d="M64.0241 21.7696H35.9759C34.6122 21.7696 33.5066 20.6642 33.5065 19.3005C33.5065 18.5409 33.856 17.8236 34.4543 17.3556L35.3548 16.651C38.9409 13.8627 41.0328 9.57008 41.0192 5.02751C41.0192 4.38038 41.5438 3.85571 42.1909 3.85571H57.8087C58.4558 3.85571 58.9805 4.38038 58.9805 5.02751C58.9668 9.57008 61.0587 13.8627 64.645 16.651L65.5454 17.3556C66.6195 18.1958 66.8092 19.7476 65.969 20.8216C65.5013 21.4201 64.7837 21.7698 64.0241 21.7696ZM43.3237 6.1993C43.006 11.0426 40.6311 15.5184 36.799 18.497L35.8984 19.2015C35.8438 19.2443 35.8342 19.3231 35.8769 19.3777C35.9007 19.4081 35.9372 19.4258 35.9757 19.4258H64.0241C64.0934 19.4258 64.1496 19.3696 64.1496 19.3003C64.1496 19.2618 64.1319 19.2253 64.1016 19.2017H64.1015L63.2011 18.4971C59.3689 15.5186 56.9942 11.0427 56.6764 6.19947H43.3237V6.1993Z" fill="#1E2E36"/>
<path d="M95.2003 27.7771H76.5516C74.9297 27.7771 73.6146 26.4622 73.6146 24.8401C73.6146 23.2179 74.9295 21.9031 76.5516 21.9031H95.2003C96.8223 21.9031 98.1373 23.2179 98.1373 24.8401C98.1373 26.4622 96.8223 27.7771 95.2003 27.7771ZM76.5516 24.247C76.2241 24.247 75.9584 24.5125 75.9584 24.8402C75.9584 25.1678 76.2239 25.4335 76.5516 25.4335H95.2003C95.5278 25.4335 95.7935 25.168 95.7935 24.8402C95.7935 24.5127 95.528 24.247 95.2003 24.247H76.5516Z" fill="#1E2E36"/>
<path d="M23.4483 27.7771H4.79967C3.17771 27.7771 1.86267 26.4622 1.86267 24.8401C1.86267 23.2179 3.17754 21.9031 4.79967 21.9031H23.4483C25.0703 21.9031 26.3853 23.2179 26.3853 24.8401C26.3853 26.4622 25.0705 27.7771 23.4483 27.7771ZM4.79967 24.247C4.47213 24.247 4.20642 24.5125 4.20642 24.8402C4.20642 25.1678 4.47197 25.4335 4.79967 25.4335H23.4483C23.7759 25.4335 24.0416 25.168 24.0416 24.8402C24.0416 24.5127 23.776 24.247 23.4483 24.247H4.79967Z" fill="#1E2E36"/>
<path d="M21.5774 24.247H16.8103C16.1632 24.247 15.6385 23.7223 15.6385 23.0752V19.0463C15.6385 18.3992 16.1632 17.8745 16.8103 17.8745H21.5774C22.2245 17.8745 22.7492 18.3992 22.7492 19.0463V23.0752C22.7494 23.7223 22.2247 24.247 21.5774 24.247ZM17.9823 21.9032H20.4056V20.2181H17.9823V21.9032Z" fill="#1E2E36"/>
<path d="M22.7005 20.2181H15.6873C15.0402 20.2181 14.5155 19.6934 14.5155 19.0463C14.5155 18.3992 15.0402 17.8745 15.6873 17.8745H22.7005C23.3476 17.8745 23.8723 18.3992 23.8723 19.0463C23.8723 19.6934 23.3476 20.2181 22.7005 20.2181Z" fill="#1E2E36"/>
<path d="M11.4375 24.247H6.67045C6.02332 24.247 5.49866 23.7223 5.49866 23.0752V19.0463C5.49866 18.3992 6.02332 17.8745 6.67045 17.8745H11.4375C12.0846 17.8745 12.6093 18.3992 12.6093 19.0463V23.0752C12.6093 23.7223 12.0846 24.247 11.4375 24.247ZM7.84224 21.9032H10.2656V20.2181H7.84241L7.84224 21.9032Z" fill="#1E2E36"/>
<path d="M12.5605 20.2181H5.54752C4.9004 20.2181 4.37573 19.6934 4.37573 19.0463C4.37573 18.3992 4.9004 17.8745 5.54752 17.8745H12.5607C13.2078 17.8745 13.7325 18.3992 13.7325 19.0463C13.7325 19.6934 13.2078 20.2181 12.5605 20.2181Z" fill="#1E2E36"/>
<path d="M21.5774 20.218H16.8103C16.1632 20.218 15.6385 19.6933 15.6385 19.0462V15.0175C15.6385 14.3704 16.1632 13.8457 16.8103 13.8457H21.5774C22.2245 13.8457 22.7492 14.3704 22.7492 15.0175V19.0462C22.7494 19.6933 22.2247 20.218 21.5774 20.218ZM17.9823 17.8743H20.4056V16.1893H17.9823V17.8743Z" fill="#1E2E36"/>
<path d="M22.7005 16.1893H15.6873C15.0402 16.1893 14.5155 15.6646 14.5155 15.0175C14.5155 14.3704 15.0402 13.8457 15.6873 13.8457H22.7005C23.3476 13.8457 23.8723 14.3704 23.8723 15.0175C23.8723 15.6646 23.3476 16.1893 22.7005 16.1893Z" fill="#1E2E36"/>
<path d="M11.4375 20.218H6.67045C6.02332 20.218 5.49866 19.6933 5.49866 19.0462V15.0175C5.49866 14.3704 6.02332 13.8457 6.67045 13.8457H11.4375C12.0846 13.8457 12.6093 14.3704 12.6093 15.0175V19.0462C12.6093 19.6933 12.0846 20.218 11.4375 20.218ZM7.84224 17.8743H10.2656V16.1893H7.84241L7.84224 17.8743Z" fill="#1E2E36"/>
<path d="M12.5605 16.1893H5.54752C4.9004 16.1893 4.37573 15.6646 4.37573 15.0175C4.37573 14.3704 4.9004 13.8457 5.54752 13.8457H12.5607C13.2078 13.8457 13.7325 14.3704 13.7325 15.0175C13.7325 15.6646 13.2078 16.1893 12.5605 16.1893Z" fill="#1E2E36"/>
<path d="M85.876 24.247C81.6985 24.2463 78.3123 20.8591 78.313 16.6816C78.3132 15.2588 78.7147 13.8647 79.4714 12.6598C79.686 12.3191 80.0605 12.1123 80.4632 12.1123H91.2887C91.6912 12.1123 92.0655 12.3189 92.2801 12.6596C94.502 16.1971 93.4355 20.8662 89.898 23.0882C88.6931 23.8451 87.299 24.2466 85.876 24.247ZM81.1547 14.4561C79.9263 17.0637 81.0444 20.1733 83.652 21.4017C86.2596 22.6301 89.3692 21.512 90.5976 18.9044C91.2611 17.4959 91.2611 15.8647 90.5976 14.4562H81.1547V14.4561Z" fill="#1E2E36"/>
<path d="M85.7668 14.4561C85.1197 14.4561 84.5948 13.9315 84.5948 13.2843V5.74479C84.5948 5.09766 85.1195 4.573 85.7668 4.573C86.4141 4.573 86.9386 5.09766 86.9386 5.74479V13.2843C86.9386 13.9315 86.4139 14.4561 85.7668 14.4561Z" fill="#1E2E36"/>
<path d="M85.7669 14.4562C85.1198 14.4562 84.5951 13.9313 84.5951 13.2842C84.5951 12.9734 84.7186 12.6754 84.9383 12.4556L88.9934 8.40057C89.4556 7.94753 90.1976 7.95513 90.6507 8.4173C91.0973 8.87304 91.0973 9.60227 90.6505 10.0578L86.5954 14.1129C86.3758 14.333 86.0777 14.4567 85.7669 14.4562Z" fill="#1E2E36"/>
<path d="M85.7669 14.456C85.4561 14.4564 85.1578 14.3329 84.9383 14.1128L80.8832 10.0577C80.4207 9.60502 80.4128 8.86296 80.8657 8.40046C81.3184 7.93795 82.0604 7.93002 82.5229 8.38289C82.5289 8.38863 82.5346 8.39454 82.5405 8.40046L86.5956 12.4555C87.0532 12.9131 87.0532 13.6552 86.5956 14.1128C86.3757 14.3326 86.0775 14.456 85.7669 14.456Z" fill="#1E2E36"/>
<path d="M60.8572 49.4261H55.1421C51.9016 49.4224 49.2756 46.7964 49.2719 43.5558V40.8011C49.2719 40.154 49.7965 39.6292 50.4438 39.6292H65.5555C66.2026 39.6292 66.7275 40.1538 66.7275 40.8011V43.5558C66.7237 46.7964 64.0977 49.4224 60.8572 49.4261ZM51.6158 41.9731V43.556C51.618 45.5028 53.1955 47.0803 55.1423 47.0825H60.8573C62.8041 47.0803 64.3817 45.5028 64.3839 43.556V41.9731H51.6158Z" fill="#1E2E36"/>
<path d="M67.7879 44.0384H65.5555C64.9084 44.0384 64.3835 43.5137 64.3835 42.8666C64.3835 42.2195 64.9082 41.6948 65.5555 41.6948H67.7879C68.4351 41.6948 68.9599 42.2195 68.9599 42.8666C68.9599 43.5137 68.4351 44.0384 67.7879 44.0384Z" fill="#1E2E36"/>
<path d="M50.0623 44.0384H47.8299C47.1827 44.0384 46.6581 43.5137 46.6581 42.8666C46.6581 42.2195 47.1827 41.6948 47.8299 41.6948H50.0623C50.7094 41.6948 51.2343 42.2195 51.2343 42.8666C51.2343 43.5137 50.7096 44.0384 50.0623 44.0384Z" fill="#1E2E36"/>
<path d="M65.5555 41.973H50.4438C49.7967 41.973 49.2719 41.4483 49.2719 40.8012C49.2719 40.5642 49.3436 40.3328 49.4779 40.1373C51.1175 37.7517 54.3827 36.2698 57.9996 36.2698C61.6165 36.2698 64.8815 37.7517 66.5212 40.1373C66.8877 40.6706 66.7526 41.4004 66.2193 41.7669C66.0241 41.901 65.7926 41.973 65.5555 41.973ZM53.5906 39.6292H62.4087C59.6252 38.2747 56.3739 38.2747 53.5906 39.6292Z" fill="#1E2E36"/>
<path d="M56.5687 38.7025C56.2817 38.7028 56.0045 38.5974 55.7903 38.4062C54.4156 37.1858 54.2906 35.0819 55.5111 33.7071C56.7315 32.3324 58.8354 32.2074 60.2102 33.4278C61.5849 34.6483 61.7099 36.7522 60.4895 38.127C60.4021 38.2255 60.3089 38.3185 60.2104 38.406C59.7297 38.8393 58.9886 38.8008 58.5553 38.3201C58.1221 37.8393 58.1606 37.0983 58.6413 36.665C58.645 36.6616 58.6488 36.6582 58.6525 36.655C59.0602 36.2947 59.0986 35.6723 58.7384 35.2647C58.3781 34.8571 57.7557 34.8185 57.3481 35.1787C56.9405 35.539 56.902 36.1615 57.2621 36.5691C57.289 36.5995 57.3175 36.628 57.3479 36.6549C57.8315 37.0849 57.8749 37.8256 57.4449 38.3093C57.2222 38.5596 56.9035 38.7025 56.5687 38.7025Z" fill="#1E2E36"/>
<path d="M13.9029 52.3343H8.95304C8.30591 52.3343 7.78125 51.8097 7.78125 51.1624V38.5754C7.78125 37.9282 8.30591 37.4036 8.95304 37.4036H13.9029C14.55 37.4036 15.0747 37.9282 15.0747 38.5754V51.1624C15.0748 51.8097 14.5502 52.3343 13.9029 52.3343ZM10.125 49.9906H12.7311V39.7473H10.125V49.9906Z" fill="#1E2E36"/>
<path d="M8.95301 52.3343H4.00334C3.35621 52.3343 2.83154 51.8097 2.83154 51.1624V38.5754C2.83154 37.9282 3.35621 37.4036 4.00334 37.4036H8.95301C9.60014 37.4036 10.1248 37.9282 10.1248 38.5754V51.1624C10.125 51.8097 9.6003 52.3343 8.95301 52.3343ZM5.17513 49.9906H7.78104V39.7473H5.1753L5.17513 49.9906Z" fill="#1E2E36"/>
<path d="M24.7744 52.3342H22.5644C20.3282 52.3317 18.5163 50.5195 18.5135 48.2834V44.1744C18.5135 43.5273 19.0382 43.0024 19.6853 43.0024H27.6533C28.3004 43.0024 28.8251 43.5271 28.8251 44.1744V48.2834C28.8227 50.5195 27.0105 52.3317 24.7744 52.3342ZM20.8575 45.3462V48.2834C20.8585 49.2258 21.6222 49.9893 22.5646 49.9905H24.7744C25.7168 49.9894 26.4805 49.2258 26.4815 48.2834V45.3464H20.8575V45.3462Z" fill="#1E2E36"/>
<path d="M28.3387 45.346H19C17.7781 45.3447 16.7879 44.3545 16.7865 43.1325V41.9171C16.7879 40.6952 17.7782 39.705 19 39.7036H28.3387C29.5607 39.705 30.5509 40.6952 30.5522 41.9171V43.1325C30.5509 44.3545 29.5607 45.3447 28.3387 45.346ZM19.1303 43.0023H28.2086V42.0474H19.1303V43.0023Z" fill="#1E2E36"/>
<path d="M77.9696 52.3342H71.9363C71.2892 52.3342 70.7645 51.8096 70.7645 51.1623V42.9156C70.7645 42.2685 71.2892 41.7437 71.9363 41.7437H77.9696C78.6167 41.7437 79.1416 42.2683 79.1416 42.9156V51.1623C79.1414 51.8096 78.6167 52.3342 77.9696 52.3342ZM73.1083 49.9905H76.7978V44.0876H73.1083V49.9905Z" fill="#1E2E36"/>
<path d="M77.9696 44.0875H71.9363C71.2892 44.0875 70.7645 43.5628 70.7645 42.9157V39.3133C70.7645 38.6662 71.2892 38.1414 71.9363 38.1414H77.9696C78.6167 38.1414 79.1416 38.666 79.1416 39.3133V42.9157C79.1414 43.5628 78.6167 44.0875 77.9696 44.0875ZM73.1083 41.7437H76.7978V40.4851H73.1083V41.7437Z" fill="#1E2E36"/>
<path d="M92.4371 48.3708C90.5225 48.3708 89.0227 46.5278 89.0227 44.1749C89.0227 41.822 90.5224 39.9788 92.4371 39.9788C94.3516 39.9788 95.8514 41.822 95.8514 44.1749C95.8514 46.5278 94.3516 48.3708 92.4371 48.3708ZM92.4371 42.3225C91.9317 42.3225 91.3665 43.1146 91.3665 44.1749C91.3665 45.235 91.9317 46.0271 92.4371 46.0271C92.9425 46.0271 93.5077 45.235 93.5077 44.1749C93.5077 43.1147 92.9425 42.3225 92.4371 42.3225Z" fill="#1E2E36"/>
<path d="M92.4369 42.3002C91.8906 42.3002 91.4166 41.9226 91.2946 41.39L89.5036 33.5765C89.1323 31.9564 90.1445 30.342 91.7646 29.9706C93.3847 29.5991 94.999 30.6115 95.3705 32.2316C95.472 32.6741 95.472 33.1339 95.3705 33.5765L93.5793 41.39C93.457 41.9226 92.9832 42.3002 92.4369 42.3002ZM92.4369 32.2385C92.0693 32.2385 91.7712 32.5365 91.7712 32.9042C91.7712 32.9542 91.7767 33.0042 91.7881 33.053L92.4369 35.8838L93.0859 33.0532C93.1681 32.6949 92.9441 32.3376 92.5859 32.2555C92.537 32.2441 92.487 32.2385 92.4369 32.2385Z" fill="#1E2E36"/>
<path d="M84.0078 42.3002C83.4615 42.3002 82.9875 41.9227 82.8656 41.3903L81.0743 33.5767C80.7029 31.9566 81.7152 30.3421 83.3353 29.9708C84.9554 29.5994 86.57 30.6117 86.9412 32.2318C87.0428 32.6744 87.0428 33.1342 86.9412 33.5767L85.15 41.3903C85.0281 41.9229 84.5541 42.3002 84.0078 42.3002ZM84.0078 32.2386C83.6401 32.2386 83.3421 32.5365 83.3421 32.9043C83.3421 32.9544 83.3477 33.0043 83.359 33.0533L84.0078 35.884L84.6566 33.0533C84.7389 32.6948 84.5149 32.3377 84.1566 32.2556C84.1078 32.2441 84.058 32.2386 84.0078 32.2386Z" fill="#1E2E36"/>
<path d="M86.7007 46.0877H81.315C80.7321 46.0877 80.2378 45.6592 80.1551 45.0822C79.9527 43.7295 80.348 42.3556 81.238 41.3171C81.9951 40.4436 83.0046 39.9426 84.0078 39.9426C85.011 39.9426 86.0208 40.4436 86.778 41.3171C87.6679 42.3556 88.063 43.7296 87.8606 45.0822C87.7779 45.6594 87.2836 46.0877 86.7007 46.0877ZM82.5355 43.744H85.4804C85.3914 43.4151 85.2296 43.1104 85.0069 42.8523C84.7089 42.5085 84.3169 42.2864 84.0078 42.2864C83.6986 42.2864 83.3067 42.5085 83.0089 42.8523C82.7865 43.1102 82.6245 43.4151 82.5355 43.744Z" fill="#1E2E36"/>
</g>
<defs>
<clipPath id="clip0_628_675">
<rect width="100" height="100" fill="white"/>
</clipPath>
</defs>
</svg>
