<svg width="163" height="24" viewBox="0 0 163 24" fill="none" xmlns="http://www.w3.org/2000/svg">
<path fill-rule="evenodd" clip-rule="evenodd" d="M5 4.75C4.30964 4.75 3.75 5.30964 3.75 6V20C3.75 20.6904 4.30964 21.25 5 21.25H19C19.6904 21.25 20.25 20.6904 20.25 20V6C20.25 5.30964 19.6904 4.75 19 4.75H5ZM2.25 6C2.25 4.48122 3.48122 3.25 5 3.25H19C20.5188 3.25 21.75 4.48122 21.75 6V20C21.75 21.5188 20.5188 22.75 19 22.75H5C3.48122 22.75 2.25 21.5188 2.25 20V6Z" fill="white"/>
<path fill-rule="evenodd" clip-rule="evenodd" d="M16 1.25C16.4142 1.25 16.75 1.58579 16.75 2V6C16.75 6.41421 16.4142 6.75 16 6.75C15.5858 6.75 15.25 6.41421 15.25 6V2C15.25 1.58579 15.5858 1.25 16 1.25Z" fill="white"/>
<path fill-rule="evenodd" clip-rule="evenodd" d="M8 1.25C8.41421 1.25 8.75 1.58579 8.75 2V6C8.75 6.41421 8.41421 6.75 8 6.75C7.58579 6.75 7.25 6.41421 7.25 6V2C7.25 1.58579 7.58579 1.25 8 1.25Z" fill="white"/>
<path fill-rule="evenodd" clip-rule="evenodd" d="M2.25 10C2.25 9.58579 2.58579 9.25 3 9.25H21C21.4142 9.25 21.75 9.58579 21.75 10C21.75 10.4142 21.4142 10.75 21 10.75H3C2.58579 10.75 2.25 10.4142 2.25 10Z" fill="white"/>
<path d="M40.412 17.5H38.918V6.826H31.898V17.5H30.404V5.494H40.412V17.5ZM44.5145 17.5H43.1645V8.806H44.5145V12.424H49.0505V8.806H50.4005V17.5H49.0505V13.612H44.5145V17.5ZM56.6061 13.738H52.2861V12.55H56.6061V13.738ZM68.5546 17.5H67.0606V6.826H60.0406V17.5H58.5466V5.494H68.5546V17.5ZM74.241 17.5H72.891V9.994H70.371V8.806H76.779V9.994H74.241V17.5ZM79.295 17.068C79.295 17.596 79.157 18.1 78.881 18.58C78.605 19.072 78.251 19.474 77.819 19.786L77.153 19.228C77.453 19.036 77.711 18.778 77.927 18.454C78.155 18.142 78.287 17.842 78.323 17.554C78.275 17.578 78.191 17.59 78.071 17.59C77.819 17.59 77.609 17.506 77.441 17.338C77.285 17.158 77.207 16.936 77.207 16.672C77.207 16.408 77.297 16.18 77.477 15.988C77.669 15.796 77.897 15.7 78.161 15.7C78.473 15.7 78.737 15.826 78.953 16.078C79.181 16.318 79.295 16.648 79.295 17.068ZM89.344 17.716C87.676 17.716 86.368 17.242 85.42 16.294L86.086 15.43C86.902 16.21 87.988 16.6 89.344 16.6C90.124 16.6 90.742 16.462 91.198 16.186C91.666 15.91 91.9 15.544 91.9 15.088C91.9 14.128 90.988 13.648 89.164 13.648H87.22V12.55H89.164C89.92 12.55 90.538 12.43 91.018 12.19C91.498 11.938 91.738 11.572 91.738 11.092C91.738 10.684 91.498 10.354 91.018 10.102C90.538 9.838 89.932 9.706 89.2 9.706C87.988 9.706 87.016 10.078 86.284 10.822L85.582 9.994C86.482 9.07 87.67 8.608 89.146 8.608C90.334 8.596 91.294 8.8 92.026 9.22C92.77 9.628 93.142 10.198 93.142 10.93C93.142 11.53 92.896 12.016 92.404 12.388C91.924 12.76 91.39 12.982 90.802 13.054C91.414 13.102 91.984 13.306 92.512 13.666C93.052 14.026 93.322 14.53 93.322 15.178C93.322 15.922 92.962 16.534 92.242 17.014C91.534 17.482 90.568 17.716 89.344 17.716ZM103.501 17.5H102.007V7.474L100.081 9.508L99.1807 8.59L102.187 5.494H103.501V17.5ZM110.41 17.716C109.618 17.716 108.916 17.536 108.304 17.176C107.704 16.804 107.224 16.312 106.864 15.7C106.516 15.088 106.252 14.428 106.072 13.72C105.904 13.012 105.82 12.274 105.82 11.506C105.82 10.738 105.904 10 106.072 9.292C106.252 8.584 106.516 7.93 106.864 7.33C107.224 6.718 107.704 6.232 108.304 5.872C108.916 5.5 109.618 5.314 110.41 5.314C111.19 5.314 111.886 5.5 112.498 5.872C113.11 6.232 113.59 6.718 113.938 7.33C114.298 7.93 114.562 8.584 114.73 9.292C114.91 10 115 10.738 115 11.506C115 12.274 114.91 13.012 114.73 13.72C114.562 14.428 114.298 15.088 113.938 15.7C113.59 16.312 113.11 16.804 112.498 17.176C111.886 17.536 111.19 17.716 110.41 17.716ZM108.61 15.646C109.09 16.138 109.69 16.384 110.41 16.384C111.13 16.384 111.73 16.138 112.21 15.646C112.69 15.142 113.02 14.542 113.2 13.846C113.38 13.15 113.47 12.37 113.47 11.506C113.47 10.642 113.38 9.862 113.2 9.166C113.02 8.47 112.69 7.876 112.21 7.384C111.73 6.892 111.13 6.646 110.41 6.646C109.69 6.646 109.09 6.892 108.61 7.384C108.13 7.876 107.8 8.47 107.62 9.166C107.44 9.862 107.35 10.642 107.35 11.506C107.35 12.37 107.44 13.15 107.62 13.846C107.8 14.542 108.13 15.142 108.61 15.646ZM120.888 19.714V16.384C121.332 16.3 121.68 16.036 121.932 15.592C122.184 15.136 122.388 14.302 122.544 13.09L123.102 8.806H129.15V16.312H130.158V19.714H128.808V17.5H122.238V19.714H120.888ZM124.29 9.994L123.894 13.252C123.69 14.776 123.27 15.796 122.634 16.312H127.8V9.994H124.29ZM138.916 16.402C138.136 17.278 137.098 17.716 135.802 17.716C134.506 17.716 133.462 17.278 132.67 16.402C131.89 15.526 131.5 14.44 131.5 13.144C131.5 11.848 131.89 10.768 132.67 9.904C133.462 9.028 134.506 8.59 135.802 8.59C137.098 8.59 138.136 9.028 138.916 9.904C139.708 10.768 140.104 11.848 140.104 13.144C140.104 14.44 139.708 15.526 138.916 16.402ZM133.678 15.538C134.206 16.186 134.914 16.51 135.802 16.51C136.69 16.51 137.392 16.186 137.908 15.538C138.424 14.878 138.682 14.08 138.682 13.144C138.682 12.208 138.424 11.416 137.908 10.768C137.392 10.12 136.69 9.796 135.802 9.796C134.914 9.796 134.206 10.126 133.678 10.786C133.162 11.434 132.904 12.22 132.904 13.144C132.904 14.08 133.162 14.878 133.678 15.538ZM150.294 17.5H148.8V7.474L146.874 9.508L145.974 8.59L148.98 5.494H150.294V17.5ZM159.993 16.834C159.177 17.422 158.157 17.716 156.933 17.716C155.709 17.716 154.683 17.422 153.855 16.834C153.039 16.246 152.631 15.454 152.631 14.458C152.631 13.702 152.901 13.048 153.441 12.496C153.993 11.944 154.677 11.548 155.493 11.308C154.725 11.092 154.089 10.744 153.585 10.264C153.081 9.772 152.829 9.16 152.829 8.428C152.829 7.42 153.237 6.652 154.053 6.124C154.869 5.584 155.829 5.314 156.933 5.314C158.037 5.314 158.997 5.584 159.813 6.124C160.641 6.652 161.055 7.42 161.055 8.428C161.055 9.16 160.803 9.772 160.299 10.264C159.795 10.744 159.153 11.092 158.373 11.308C159.189 11.548 159.867 11.944 160.407 12.496C160.959 13.048 161.235 13.702 161.235 14.458C161.235 15.442 160.821 16.234 159.993 16.834ZM156.933 10.696C157.173 10.66 157.413 10.6 157.653 10.516C157.905 10.432 158.187 10.318 158.499 10.174C158.811 10.018 159.063 9.808 159.255 9.544C159.447 9.268 159.543 8.962 159.543 8.626C159.543 8.026 159.291 7.546 158.787 7.186C158.295 6.826 157.677 6.646 156.933 6.646C156.177 6.646 155.553 6.826 155.061 7.186C154.569 7.546 154.323 8.026 154.323 8.626C154.323 8.962 154.419 9.268 154.611 9.544C154.803 9.808 155.055 10.018 155.367 10.174C155.679 10.318 155.955 10.432 156.195 10.516C156.447 10.588 156.693 10.648 156.933 10.696ZM156.933 16.384C157.701 16.384 158.355 16.192 158.895 15.808C159.447 15.424 159.723 14.92 159.723 14.296C159.723 13.816 159.531 13.396 159.147 13.036C158.775 12.664 158.391 12.406 157.995 12.262C157.611 12.106 157.257 12.01 156.933 11.974C156.609 12.01 156.249 12.106 155.853 12.262C155.469 12.406 155.085 12.664 154.701 13.036C154.317 13.396 154.125 13.816 154.125 14.296C154.125 14.92 154.395 15.424 154.935 15.808C155.487 16.192 156.153 16.384 156.933 16.384Z" fill="white"/>
</svg>
