<svg width="71" height="24" viewBox="0 0 71 24" fill="none" xmlns="http://www.w3.org/2000/svg">
<path fill-rule="evenodd" clip-rule="evenodd" d="M12 1.75C9.81196 1.75 7.71354 2.61919 6.16637 4.16637C4.61919 5.71354 3.75 7.81196 3.75 10C3.75 13.1985 5.8243 16.2657 8.04446 18.6092C9.13921 19.7648 10.2365 20.7099 11.0609 21.3664C11.4432 21.6708 11.7656 21.9122 12 22.0825C12.2344 21.9122 12.5568 21.6708 12.9391 21.3664C13.7635 20.7099 14.8608 19.7648 15.9555 18.6092C18.1757 16.2657 20.25 13.1985 20.25 10C20.25 7.81196 19.3808 5.71354 17.8336 4.16637C16.2865 2.61919 14.188 1.75 12 1.75ZM12 23C11.584 23.624 11.5835 23.6238 11.5835 23.6238L11.581 23.6221L11.5748 23.6179L11.5528 23.603C11.5339 23.5902 11.5068 23.5716 11.4719 23.5475C11.4021 23.4992 11.3014 23.4284 11.1742 23.3365C10.9197 23.1528 10.5587 22.8839 10.1266 22.5398C9.2635 21.8526 8.11079 20.8602 6.95554 19.6408C4.6757 17.2343 2.25 13.8015 2.25 10C2.25 7.41414 3.27723 4.93419 5.10571 3.10571C6.93419 1.27723 9.41414 0.25 12 0.25C14.5859 0.25 17.0658 1.27723 18.8943 3.10571C20.7228 4.93419 21.75 7.41414 21.75 10C21.75 13.8015 19.3243 17.2343 17.0445 19.6408C15.8892 20.8602 14.7365 21.8526 13.8734 22.5398C13.4413 22.8839 13.0803 23.1528 12.8258 23.3365C12.6986 23.4284 12.5979 23.4992 12.5281 23.5475C12.4932 23.5716 12.4661 23.5902 12.4472 23.603L12.4252 23.6179L12.419 23.6221L12.4171 23.6233C12.4171 23.6233 12.416 23.624 12 23ZM12 23L12.416 23.624C12.1641 23.792 11.8355 23.7917 11.5835 23.6238L12 23Z" fill="white"/>
<path fill-rule="evenodd" clip-rule="evenodd" d="M12 7.75C10.7574 7.75 9.75 8.75736 9.75 10C9.75 11.2426 10.7574 12.25 12 12.25C13.2426 12.25 14.25 11.2426 14.25 10C14.25 8.75736 13.2426 7.75 12 7.75ZM8.25 10C8.25 7.92893 9.92893 6.25 12 6.25C14.0711 6.25 15.75 7.92893 15.75 10C15.75 12.0711 14.0711 13.75 12 13.75C9.92893 13.75 8.25 12.0711 8.25 10Z" fill="white"/>
<path d="M34.868 17.5H33.374V6.826H29.576V5.494H38.684V6.826H34.868V17.5ZM48.5356 17.5H40.6696V5.494H48.5356V6.826H42.1636V10.696H48.4096V12.028H42.1636V16.168H48.5356V17.5ZM54.8057 17.716C52.8617 17.716 51.3257 17.08 50.1977 15.808L51.0797 14.674C52.0997 15.814 53.3597 16.384 54.8597 16.384C55.8317 16.384 56.5457 16.18 57.0017 15.772C57.4577 15.352 57.6857 14.866 57.6857 14.314C57.6857 13.894 57.5537 13.54 57.2897 13.252C57.0257 12.964 56.6837 12.742 56.2637 12.586C55.8557 12.418 55.3937 12.268 54.8777 12.136C54.3737 12.004 53.8697 11.86 53.3657 11.704C52.8617 11.536 52.3997 11.338 51.9797 11.11C51.5717 10.882 51.2357 10.558 50.9717 10.138C50.7077 9.718 50.5757 9.22 50.5757 8.644C50.5757 7.66 50.9657 6.862 51.7457 6.25C52.5257 5.626 53.5097 5.314 54.6977 5.314C56.4857 5.314 57.9077 5.872 58.9637 6.988L58.0637 8.086C57.1877 7.126 56.0297 6.646 54.5897 6.646C53.8697 6.646 53.2757 6.826 52.8077 7.186C52.3517 7.534 52.1237 7.99 52.1237 8.554C52.1237 8.974 52.2977 9.322 52.6457 9.598C53.0057 9.874 53.4437 10.078 53.9597 10.21C54.4877 10.342 55.0577 10.51 55.6697 10.714C56.2937 10.906 56.8637 11.116 57.3797 11.344C57.9077 11.56 58.3457 11.914 58.6937 12.406C59.0537 12.898 59.2337 13.492 59.2337 14.188C59.2337 15.172 58.8677 16.006 58.1357 16.69C57.4157 17.374 56.3057 17.716 54.8057 17.716ZM65.8231 17.5H64.3291V6.826H60.5311V5.494H69.6391V6.826H65.8231V17.5Z" fill="white"/>
</svg>
