<svg width="261" height="21" viewBox="0 0 261 21" fill="none" xmlns="http://www.w3.org/2000/svg">
<path d="M23.98 4.2H28.46V5.18H25.24V14H23.98V4.2ZM29.0216 14.14C28.7883 14.14 28.5876 14.1167 28.4196 14.07C28.3263 14.0513 28.247 14.028 28.1816 14V13.37C28.3776 13.37 28.555 13.3327 28.7136 13.258C28.8723 13.1833 29.0123 13.0573 29.1336 12.88C29.255 12.6933 29.353 12.4553 29.4276 12.166C29.5116 11.8673 29.563 11.4987 29.5816 11.06L29.9316 4.2H34.6216V14H33.3616V5.18H31.1496L30.8416 11.06C30.8136 11.62 30.7436 12.096 30.6316 12.488C30.529 12.88 30.3936 13.1973 30.2256 13.44C30.067 13.6827 29.8803 13.86 29.6656 13.972C29.4603 14.084 29.2456 14.14 29.0216 14.14ZM40.3655 9.03V4.97H39.3855C38.7508 4.97 38.2888 5.124 37.9995 5.432C37.7101 5.74 37.5655 6.26267 37.5655 7C37.5655 7.73733 37.7101 8.26 37.9995 8.568C38.2888 8.876 38.7508 9.03 39.3855 9.03H40.3655ZM38.1955 9.66C37.9715 9.62267 37.7428 9.54333 37.5095 9.422C37.2855 9.30067 37.0848 9.13267 36.9075 8.918C36.7301 8.694 36.5855 8.42333 36.4735 8.106C36.3615 7.78867 36.3055 7.42 36.3055 7C36.3055 6.47733 36.3615 6.02933 36.4735 5.656C36.5855 5.28267 36.7628 4.97933 37.0055 4.746C37.2481 4.50333 37.5655 4.33067 37.9575 4.228C38.3495 4.116 38.8255 4.06 39.3855 4.06C39.8055 4.06 40.1928 4.08333 40.5475 4.13C40.9115 4.16733 41.2708 4.23733 41.6255 4.34V14H40.3655V10.01H39.8055C39.5255 10.01 39.2641 10.0987 39.0215 10.276C38.7788 10.4533 38.5968 10.7847 38.4755 11.27L38.1955 12.46C37.9155 13.58 37.3788 14.14 36.5855 14.14C36.3708 14.14 36.1795 14.1167 36.0115 14.07C35.9181 14.0513 35.8295 14.028 35.7455 14V13.37C36.1001 13.37 36.3568 13.2907 36.5155 13.132C36.6741 12.964 36.7908 12.74 36.8655 12.46L37.1455 11.27C37.2481 10.8127 37.3881 10.458 37.5655 10.206C37.7428 9.954 37.9528 9.79067 38.1955 9.716V9.66ZM49.0455 4.2V14H47.7855V9.52H44.8455V14H43.5855V4.2H44.8455V8.54H47.7855V4.2H49.0455ZM52.2693 13.02H55.7693V14H51.0093V4.2H55.7693V5.18H52.2693V8.4H55.3493V9.38H52.2693V13.02ZM57.312 14V4.2H58.572V13.02H61.372V4.2H62.632V13.02H63.542V16.1H62.772C62.5574 15.54 62.4174 14.84 62.352 14H57.312ZM66.1326 9.03V13.23H67.1126C67.7472 13.23 68.2092 13.076 68.4986 12.768C68.7879 12.4507 68.9326 11.9047 68.9326 11.13C68.9326 10.3553 68.7879 9.814 68.4986 9.506C68.2092 9.18867 67.7472 9.03 67.1126 9.03H66.1326ZM67.5326 8.05C68.4379 8.05 69.1052 8.28333 69.5346 8.75C69.9732 9.21667 70.1926 10.01 70.1926 11.13C70.1926 11.6713 70.1366 12.1333 70.0246 12.516C69.9126 12.8987 69.7352 13.2113 69.4926 13.454C69.2499 13.6873 68.9326 13.86 68.5406 13.972C68.1486 14.084 67.6726 14.14 67.1126 14.14C66.6926 14.14 66.3006 14.1167 65.9366 14.07C65.5819 14.0327 65.2272 13.9627 64.8726 13.86V4.2H66.1326V8.19C66.3099 8.15267 66.5339 8.12 66.8046 8.092C67.0752 8.064 67.3179 8.05 67.5326 8.05ZM74.6759 9.59H82.7959V10.57H74.6759V9.59ZM89.9309 10.15C90.2483 10.15 90.5189 10.1127 90.7429 10.038C90.9763 9.954 91.1676 9.814 91.3169 9.618C91.4663 9.422 91.5736 9.156 91.6389 8.82C91.7136 8.484 91.7509 8.064 91.7509 7.56C91.7509 7.056 91.7136 6.636 91.6389 6.3C91.5736 5.964 91.4663 5.698 91.3169 5.502C91.1676 5.306 90.9763 5.17067 90.7429 5.096C90.5189 5.012 90.2483 4.97 89.9309 4.97H88.9509V10.15H89.9309ZM88.9509 14H87.6909V4.34C88.0456 4.23733 88.4003 4.16733 88.7549 4.13C89.1189 4.08333 89.5109 4.06 89.9309 4.06C90.4909 4.06 90.9669 4.12067 91.3589 4.242C91.7509 4.354 92.0683 4.54533 92.3109 4.816C92.5536 5.08667 92.7309 5.446 92.8429 5.894C92.9549 6.342 93.0109 6.89733 93.0109 7.56C93.0109 8.24133 92.9549 8.81067 92.8429 9.268C92.7403 9.72533 92.5769 10.094 92.3529 10.374C92.1383 10.6447 91.8629 10.8407 91.5269 10.962C91.2003 11.074 90.8083 11.13 90.3509 11.13C90.1363 11.13 89.8936 11.116 89.6229 11.088C89.3523 11.06 89.1283 11.0273 88.9509 10.99V14ZM97.2842 4.06C97.7602 4.06 98.1802 4.13933 98.5442 4.298C98.9176 4.45667 99.2349 4.72733 99.4962 5.11C99.7576 5.49267 99.9536 6.01067 100.084 6.664C100.224 7.308 100.294 8.12 100.294 9.1C100.294 10.08 100.224 10.8967 100.084 11.55C99.9536 12.194 99.7576 12.7073 99.4962 13.09C99.2349 13.4727 98.9176 13.7433 98.5442 13.902C98.1802 14.0607 97.7602 14.14 97.2842 14.14C96.8082 14.14 96.3836 14.0607 96.0102 13.902C95.6462 13.7433 95.3336 13.4727 95.0722 13.09C94.8109 12.7073 94.6102 12.194 94.4702 11.55C94.3396 10.8967 94.2742 10.08 94.2742 9.1C94.2742 8.12 94.3396 7.308 94.4702 6.664C94.6102 6.01067 94.8109 5.49267 95.0722 5.11C95.3336 4.72733 95.6462 4.45667 96.0102 4.298C96.3836 4.13933 96.8082 4.06 97.2842 4.06ZM97.2842 13.3C97.5082 13.3 97.7276 13.2393 97.9422 13.118C98.1569 12.9967 98.3436 12.7773 98.5022 12.46C98.6609 12.1427 98.7869 11.7133 98.8802 11.172C98.9829 10.6307 99.0342 9.94 99.0342 9.1C99.0342 8.26 98.9829 7.56933 98.8802 7.028C98.7869 6.48667 98.6609 6.05733 98.5022 5.74C98.3436 5.42267 98.1569 5.20333 97.9422 5.082C97.7276 4.96067 97.5082 4.9 97.2842 4.9C97.0602 4.9 96.8409 4.96067 96.6262 5.082C96.4116 5.20333 96.2249 5.42267 96.0662 5.74C95.9076 6.05733 95.7769 6.48667 95.6742 7.028C95.5809 7.56933 95.5342 8.26 95.5342 9.1C95.5342 9.94 95.5809 10.6307 95.6742 11.172C95.7769 11.7133 95.9076 12.1427 96.0662 12.46C96.2249 12.7773 96.4116 12.9967 96.6262 13.118C96.8409 13.2393 97.0602 13.3 97.2842 13.3ZM102.895 13.23C103.595 13.23 104.094 13.0853 104.393 12.796C104.701 12.4973 104.855 12.012 104.855 11.34C104.855 10.64 104.701 10.1407 104.393 9.842C104.094 9.534 103.595 9.38 102.895 9.38H101.915V8.4H102.755C103.389 8.4 103.851 8.26 104.141 7.98C104.43 7.69067 104.575 7.24733 104.575 6.65C104.575 6.09 104.43 5.67 104.141 5.39C103.851 5.11 103.389 4.97 102.755 4.97H101.075V4.34C101.177 4.30267 101.303 4.27 101.453 4.242C101.602 4.20467 101.761 4.172 101.929 4.144C102.097 4.116 102.265 4.09733 102.433 4.088C102.601 4.06933 102.755 4.06 102.895 4.06C103.949 4.06 104.701 4.27467 105.149 4.704C105.606 5.124 105.835 5.77267 105.835 6.65C105.835 7.21 105.727 7.658 105.513 7.994C105.307 8.33 104.995 8.596 104.575 8.792V8.848C105.135 9.00667 105.531 9.31467 105.765 9.772C105.998 10.22 106.115 10.7427 106.115 11.34C106.115 11.8347 106.059 12.2593 105.947 12.614C105.835 12.9593 105.653 13.2487 105.401 13.482C105.149 13.706 104.817 13.874 104.407 13.986C103.996 14.0887 103.492 14.14 102.895 14.14C102.54 14.14 102.176 14.112 101.803 14.056C101.439 14 101.149 13.9347 100.935 13.86V13.23H102.895ZM109.892 10.15C110.209 10.15 110.48 10.1127 110.704 10.038C110.937 9.954 111.129 9.814 111.278 9.618C111.427 9.422 111.535 9.156 111.6 8.82C111.675 8.484 111.712 8.064 111.712 7.56C111.712 7.056 111.675 6.636 111.6 6.3C111.535 5.964 111.427 5.698 111.278 5.502C111.129 5.306 110.937 5.17067 110.704 5.096C110.48 5.012 110.209 4.97 109.892 4.97H108.912V10.15H109.892ZM108.912 14H107.652V4.34C108.007 4.23733 108.361 4.16733 108.716 4.13C109.08 4.08333 109.472 4.06 109.892 4.06C110.452 4.06 110.928 4.12067 111.32 4.242C111.712 4.354 112.029 4.54533 112.272 4.816C112.515 5.08667 112.692 5.446 112.804 5.894C112.916 6.342 112.972 6.89733 112.972 7.56C112.972 8.24133 112.916 8.81067 112.804 9.268C112.701 9.72533 112.538 10.094 112.314 10.374C112.099 10.6447 111.824 10.8407 111.488 10.962C111.161 11.074 110.769 11.13 110.312 11.13C110.097 11.13 109.855 11.116 109.584 11.088C109.313 11.06 109.089 11.0273 108.912 10.99V14ZM117.245 4.06C117.721 4.06 118.141 4.13933 118.505 4.298C118.878 4.45667 119.196 4.72733 119.457 5.11C119.718 5.49267 119.914 6.01067 120.045 6.664C120.185 7.308 120.255 8.12 120.255 9.1C120.255 10.08 120.185 10.8967 120.045 11.55C119.914 12.194 119.718 12.7073 119.457 13.09C119.196 13.4727 118.878 13.7433 118.505 13.902C118.141 14.0607 117.721 14.14 117.245 14.14C116.769 14.14 116.344 14.0607 115.971 13.902C115.607 13.7433 115.294 13.4727 115.033 13.09C114.772 12.7073 114.571 12.194 114.431 11.55C114.3 10.8967 114.235 10.08 114.235 9.1C114.235 8.12 114.3 7.308 114.431 6.664C114.571 6.01067 114.772 5.49267 115.033 5.11C115.294 4.72733 115.607 4.45667 115.971 4.298C116.344 4.13933 116.769 4.06 117.245 4.06ZM117.245 13.3C117.469 13.3 117.688 13.2393 117.903 13.118C118.118 12.9967 118.304 12.7773 118.463 12.46C118.622 12.1427 118.748 11.7133 118.841 11.172C118.944 10.6307 118.995 9.94 118.995 9.1C118.995 8.26 118.944 7.56933 118.841 7.028C118.748 6.48667 118.622 6.05733 118.463 5.74C118.304 5.42267 118.118 5.20333 117.903 5.082C117.688 4.96067 117.469 4.9 117.245 4.9C117.021 4.9 116.802 4.96067 116.587 5.082C116.372 5.20333 116.186 5.42267 116.027 5.74C115.868 6.05733 115.738 6.48667 115.635 7.028C115.542 7.56933 115.495 8.26 115.495 9.1C115.495 9.94 115.542 10.6307 115.635 11.172C115.738 11.7133 115.868 12.1427 116.027 12.46C116.186 12.7773 116.372 12.9967 116.587 13.118C116.802 13.2393 117.021 13.3 117.245 13.3ZM123.199 8.05H124.179C124.739 8.05 125.215 8.106 125.607 8.218C125.999 8.33 126.316 8.50733 126.559 8.75C126.802 8.99267 126.979 9.31 127.091 9.702C127.203 10.094 127.259 10.57 127.259 11.13C127.259 11.6713 127.203 12.1333 127.091 12.516C126.979 12.8987 126.802 13.2113 126.559 13.454C126.316 13.6873 125.999 13.86 125.607 13.972C125.215 14.084 124.739 14.14 124.179 14.14C123.759 14.14 123.367 14.1167 123.003 14.07C122.648 14.0327 122.294 13.9627 121.939 13.86V4.2H126.839V5.18H123.199V8.05ZM123.199 9.03V13.23H124.179C124.814 13.23 125.276 13.076 125.565 12.768C125.854 12.4507 125.999 11.9047 125.999 11.13C125.999 10.3553 125.854 9.814 125.565 9.506C125.276 9.18867 124.814 9.03 124.179 9.03H123.199ZM131.812 8.918C131.99 8.96467 132.148 9.02533 132.288 9.1C132.438 9.17467 132.568 9.27733 132.68 9.408C132.802 9.53867 132.904 9.70667 132.988 9.912C133.082 10.108 133.156 10.3507 133.212 10.64L133.562 12.46C133.609 12.7027 133.716 12.9173 133.884 13.104C134.062 13.2813 134.328 13.37 134.682 13.37V14C134.617 14.028 134.538 14.0513 134.444 14.07C134.276 14.1167 134.076 14.14 133.842 14.14C133.422 14.14 133.072 14 132.792 13.72C132.522 13.44 132.335 13.02 132.232 12.46L131.882 10.64C131.789 10.1453 131.621 9.814 131.378 9.646C131.145 9.46867 130.87 9.38 130.552 9.38H130.062V14H128.802V4.2H130.062V8.4H130.552C130.795 8.4 131.024 8.31133 131.238 8.134C131.453 7.95667 131.621 7.62533 131.742 7.14L132.092 5.74C132.372 4.62 132.909 4.06 133.702 4.06C133.824 4.06 133.936 4.06933 134.038 4.088C134.141 4.09733 134.23 4.11133 134.304 4.13C134.398 4.158 134.477 4.18133 134.542 4.2V4.83C134.188 4.83 133.931 4.914 133.772 5.082C133.614 5.24067 133.497 5.46 133.422 5.74L133.072 7.14C132.998 7.42933 132.918 7.67667 132.834 7.882C132.76 8.078 132.671 8.24133 132.568 8.372C132.466 8.50267 132.354 8.60533 132.232 8.68C132.111 8.75467 131.971 8.81533 131.812 8.862V8.918ZM136.924 11.48L136.294 14H135.034L137.414 4.2H139.234L141.614 14H140.354L139.724 11.48H136.924ZM138.352 5.6H138.296L137.134 10.5H139.514L138.352 5.6ZM147.631 4.2V14H146.371V4.2H147.631ZM155.057 4.2V14H153.797V9.52H150.857V14H149.597V4.2H150.857V8.54H153.797V4.2H155.057ZM156.181 4.2H161.921V5.18H159.681V14H158.421V5.18H156.181V4.2ZM164.297 13.02H167.797V14H163.037V4.2H167.797V5.18H164.297V8.4H167.377V9.38H164.297V13.02ZM171.579 10.15C171.897 10.15 172.167 10.1127 172.391 10.038C172.625 9.954 172.816 9.814 172.965 9.618C173.115 9.422 173.222 9.156 173.287 8.82C173.362 8.484 173.399 8.064 173.399 7.56C173.399 7.056 173.362 6.636 173.287 6.3C173.222 5.964 173.115 5.698 172.965 5.502C172.816 5.306 172.625 5.17067 172.391 5.096C172.167 5.012 171.897 4.97 171.579 4.97H170.599V10.15H171.579ZM170.599 14H169.339V4.34C169.694 4.23733 170.049 4.16733 170.403 4.13C170.767 4.08333 171.159 4.06 171.579 4.06C172.139 4.06 172.615 4.12067 173.007 4.242C173.399 4.354 173.717 4.54533 173.959 4.816C174.202 5.08667 174.379 5.446 174.491 5.894C174.603 6.342 174.659 6.89733 174.659 7.56C174.659 8.24133 174.603 8.81067 174.491 9.268C174.389 9.72533 174.225 10.094 174.001 10.374C173.787 10.6447 173.511 10.8407 173.175 10.962C172.849 11.074 172.457 11.13 171.999 11.13C171.785 11.13 171.542 11.116 171.271 11.088C171.001 11.06 170.777 11.0273 170.599 10.99V14ZM181.663 4.2V14H180.403V9.52H177.463V14H176.203V4.2H177.463V8.54H180.403V4.2H181.663ZM184.886 13.02H188.386V14H183.626V4.2H188.386V5.18H184.886V8.4H187.966V9.38H184.886V13.02ZM189.089 4.2H194.829V5.18H192.589V14H191.329V5.18H189.089V4.2ZM195.385 9.31H199.585V10.29H195.385V9.31ZM204.56 12.74L202.53 6.72H202.46L202.04 14H200.78L201.34 4.2H202.88L205.162 10.92H205.218L207.5 4.2H209.04L209.6 14H208.34L207.92 6.72H207.85L205.82 12.74H204.56ZM212.543 11.48L211.913 14H210.653L213.033 4.2H214.853L217.233 14H215.973L215.343 11.48H212.543ZM213.971 5.6H213.915L212.753 10.5H215.133L213.971 5.6ZM218.49 4.2H222.97V5.18H219.75V14H218.49V4.2ZM224.725 11.48L224.095 14H222.835L225.215 4.2H227.035L229.415 14H228.155L227.525 11.48H224.725ZM226.153 5.6H226.097L224.935 10.5H227.315L226.153 5.6ZM231.861 13.23C232.561 13.23 233.061 13.0853 233.359 12.796C233.667 12.4973 233.821 12.012 233.821 11.34C233.821 10.64 233.667 10.1407 233.359 9.842C233.061 9.534 232.561 9.38 231.861 9.38H230.881V8.4H231.721C232.356 8.4 232.818 8.26 233.107 7.98C233.397 7.69067 233.541 7.24733 233.541 6.65C233.541 6.09 233.397 5.67 233.107 5.39C232.818 5.11 232.356 4.97 231.721 4.97H230.041V4.34C230.144 4.30267 230.27 4.27 230.419 4.242C230.569 4.20467 230.727 4.172 230.895 4.144C231.063 4.116 231.231 4.09733 231.399 4.088C231.567 4.06933 231.721 4.06 231.861 4.06C232.916 4.06 233.667 4.27467 234.115 4.704C234.573 5.124 234.801 5.77267 234.801 6.65C234.801 7.21 234.694 7.658 234.479 7.994C234.274 8.33 233.961 8.596 233.541 8.792V8.848C234.101 9.00667 234.498 9.31467 234.731 9.772C234.965 10.22 235.081 10.7427 235.081 11.34C235.081 11.8347 235.025 12.2593 234.913 12.614C234.801 12.9593 234.619 13.2487 234.367 13.482C234.115 13.706 233.784 13.874 233.373 13.986C232.963 14.0887 232.459 14.14 231.861 14.14C231.507 14.14 231.143 14.112 230.769 14.056C230.405 14 230.116 13.9347 229.901 13.86V13.23H231.861ZM240.959 6.72H240.889L238.019 14H236.619V4.2H237.879V11.48H237.949L240.749 4.2H242.219V14H240.959V6.72ZM249.639 4.2V14H248.379V9.52H245.439V14H244.179V4.2H245.439V8.54H248.379V4.2H249.639ZM252.863 4.2V14H251.603V4.2H252.863ZM258.75 8.778C259.31 8.93667 259.706 9.24467 259.94 9.702C260.173 10.1593 260.29 10.7053 260.29 11.34C260.29 11.8347 260.234 12.2593 260.122 12.614C260.01 12.9593 259.828 13.2487 259.576 13.482C259.324 13.706 258.992 13.874 258.582 13.986C258.171 14.0887 257.667 14.14 257.07 14.14C256.65 14.14 256.258 14.1167 255.894 14.07C255.539 14.0327 255.184 13.9627 254.83 13.86V4.34C255.184 4.23733 255.539 4.16733 255.894 4.13C256.258 4.08333 256.65 4.06 257.07 4.06C258.059 4.06 258.773 4.27467 259.212 4.704C259.65 5.124 259.87 5.77267 259.87 6.65C259.87 7.07 259.786 7.462 259.618 7.826C259.459 8.19 259.17 8.48867 258.75 8.722V8.778ZM256.09 9.31V13.23H257.07C257.77 13.23 258.269 13.0853 258.568 12.796C258.876 12.4973 259.03 12.012 259.03 11.34C259.03 10.6027 258.876 10.08 258.568 9.772C258.269 9.464 257.77 9.31 257.07 9.31H256.09ZM256.93 8.4C258.05 8.4 258.61 7.81667 258.61 6.65C258.61 5.53 258.05 4.97 256.93 4.97H256.09V8.4H256.93Z" fill="white"/>
<path d="M11.1072 0C6.02956 1.72803 1.74643 5.25083 0 10.5C1.72649 15.6893 5.96941 19.2515 11.1072 21C15.6759 17.4456 18.1672 14.591 20 10.5C17.3693 8.71775 16.2642 7.80021 14.1314 5.04227C11.2738 6.38147 8.78639 7.94215 6.58296 10.443C7.37367 11.5796 8.68652 12.6405 9.74796 13.5121C11.2949 12.365 12.4746 11.2473 13.2387 10.2883C13.7179 10.8791 14.2581 11.2722 14.7727 11.6008C13.4435 13.8825 11.9519 15.1353 10.1099 16.3319C7.34317 14.8539 5.11921 12.2957 4.03831 10.1325C6.06428 6.76193 9.24194 4.48607 12.8526 3.21774C12.2677 2.1839 11.5009 1.22111 11.1072 0Z" fill="#FFD001"/>
</svg>
