<svg width="40" height="40" viewBox="0 0 40 40" fill="none" xmlns="http://www.w3.org/2000/svg">
<path fill-rule="evenodd" clip-rule="evenodd" d="M15.6027 9.39794C16.7405 9.34616 17.1041 9.3335 20.001 9.3335H19.9976C22.8955 9.3335 23.2577 9.34616 24.3955 9.39794C25.531 9.44994 26.3066 9.62972 26.9866 9.8935C27.6888 10.1657 28.2822 10.5302 28.8755 11.1235C29.4689 11.7164 29.8333 12.3115 30.1066 13.0131C30.3689 13.6913 30.5489 14.4664 30.6022 15.602C30.6533 16.7398 30.6666 17.1034 30.6666 20.0003C30.6666 22.8972 30.6533 23.2599 30.6022 24.3977C30.5489 25.5328 30.3689 26.3081 30.1066 26.9866C29.8333 27.6879 29.4689 28.283 28.8755 28.8759C28.2828 29.4693 27.6886 29.8346 26.9873 30.107C26.3086 30.3708 25.5326 30.5506 24.397 30.6026C23.2592 30.6544 22.8968 30.667 19.9996 30.667C17.1029 30.667 16.7396 30.6544 15.6018 30.6026C14.4665 30.5506 13.6911 30.3708 13.0125 30.107C12.3113 29.8346 11.7162 29.4693 11.1236 28.8759C10.5304 28.283 10.166 27.6879 9.89332 26.9863C9.62976 26.3081 9.44998 25.533 9.39776 24.3974C9.3462 23.2596 9.33331 22.8972 9.33331 20.0003C9.33331 17.1034 9.34665 16.7396 9.39754 15.6018C9.44865 14.4667 9.62865 13.6913 9.8931 13.0129C10.1664 12.3115 10.5309 11.7164 11.1242 11.1235C11.7171 10.5304 12.3122 10.1659 13.0138 9.8935C13.692 9.62972 14.4671 9.44994 15.6027 9.39794ZM19.6455 11.2557C19.4298 11.2556 19.2299 11.2555 19.0441 11.2558V11.2531C17.0561 11.2553 16.6748 11.2686 15.6908 11.3131C14.6507 11.3609 14.0861 11.5342 13.7101 11.6809C13.2123 11.8747 12.8567 12.1058 12.4834 12.4791C12.1101 12.8524 11.8785 13.208 11.6852 13.7058C11.5392 14.0818 11.3654 14.6462 11.3178 15.6862C11.2667 16.8107 11.2565 17.1467 11.2565 19.9952C11.2565 22.8437 11.2667 23.1814 11.3178 24.3059C11.3652 25.3459 11.5392 25.9104 11.6852 26.2859C11.8789 26.7839 12.1101 27.1386 12.4834 27.5119C12.8567 27.8853 13.2123 28.1164 13.7101 28.3097C14.0863 28.4557 14.6507 28.6295 15.6908 28.6775C16.8152 28.7286 17.1528 28.7397 20.001 28.7397C22.8491 28.7397 23.1868 28.7286 24.3113 28.6775C25.3513 28.6299 25.9162 28.4566 26.2918 28.3099C26.7898 28.1166 27.1442 27.8855 27.5175 27.5121C27.8909 27.139 28.1224 26.7846 28.3158 26.2868C28.4618 25.9112 28.6356 25.3468 28.6831 24.3068C28.7342 23.1823 28.7453 22.8445 28.7453 19.9979C28.7453 17.1512 28.7342 16.8134 28.6831 15.6889C28.6358 14.6489 28.4618 14.0845 28.3158 13.7089C28.122 13.2111 27.8909 12.8556 27.5175 12.4822C27.1444 12.1089 26.7895 11.8778 26.2918 11.6844C25.9158 11.5384 25.3513 11.3646 24.3113 11.3171C23.1866 11.266 22.8491 11.2558 20.001 11.2558L19.6455 11.2557ZM14.5232 20.0001C14.5232 16.975 16.9759 14.5223 20.001 14.5223H20.0008C23.0259 14.5223 25.478 16.975 25.478 20.0001C25.478 23.0253 23.0262 25.4769 20.001 25.4769C16.9759 25.4769 14.5232 23.0253 14.5232 20.0001ZM23.5566 20.0004C23.5566 18.0366 21.9645 16.4448 20.001 16.4448C18.0372 16.4448 16.4454 18.0366 16.4454 20.0004C16.4454 21.964 18.0372 23.556 20.001 23.556C21.9645 23.556 23.5566 21.964 23.5566 20.0004ZM24.4149 14.3065C24.4149 13.5996 24.9883 13.027 25.695 13.027V13.0265C26.4016 13.0265 26.975 13.5999 26.975 14.3065C26.975 15.0132 26.4016 15.5866 25.695 15.5866C24.9883 15.5866 24.4149 15.0132 24.4149 14.3065Z" fill="white"/>
</svg>
