<svg width="40" height="40" viewBox="0 0 40 40" fill="none" xmlns="http://www.w3.org/2000/svg">
<path fill-rule="evenodd" clip-rule="evenodd" d="M16.6736 24.0684L16.6732 24.0681L16.6737 24.0677L16.6737 24.0675L16.6738 24.0676L25.9473 15.6989C26.3543 15.3377 25.8584 15.1615 25.3181 15.4892L13.8726 22.71L8.92879 21.167C7.86114 20.8401 7.85347 20.1064 9.16849 19.579L28.4335 12.1505C29.3134 11.751 30.1626 12.3618 29.8267 13.7085L26.5459 29.169C26.3168 30.2676 25.653 30.5304 24.7332 30.0229L19.7355 26.3306L17.3334 28.6664C17.3258 28.6737 17.3182 28.6811 17.3107 28.6884C17.0421 28.95 16.8198 29.1664 16.3334 29.1664L16.6736 24.0684Z" fill="white"/>
</svg>
