<svg width="31" height="32" viewBox="0 0 31 32" fill="none" xmlns="http://www.w3.org/2000/svg">
<path fill-rule="evenodd" clip-rule="evenodd" d="M15.5 31C23.7843 31 30.5 24.2843 30.5 16C30.5 7.71573 23.7843 1 15.5 1C7.21573 1 0.5 7.71573 0.5 16C0.5 24.2843 7.21573 31 15.5 31Z" stroke="#1E2E36"/>
<path d="M11.6808 15.8695C11.6808 15.6592 11.7591 15.4488 11.9154 15.2884L16.8348 10.2408C17.1478 9.91973 17.6552 9.91973 17.968 10.2408C18.2808 10.5618 18.2808 11.0823 17.968 11.4034L13.615 15.8695L17.9678 20.3357C18.2806 20.6568 18.2806 21.1773 17.9678 21.4982C17.655 21.8194 17.1476 21.8194 16.8347 21.4982L11.9152 16.4507C11.759 16.2902 11.6808 16.0799 11.6808 15.8695Z" fill="#1E2E36"/>
</svg>
