<svg width="31" height="30" viewBox="0 0 31 30" fill="none" xmlns="http://www.w3.org/2000/svg">
<path fill-rule="evenodd" clip-rule="evenodd" d="M15.5 30C23.7843 30 30.5 23.2843 30.5 15C30.5 6.71573 23.7843 0 15.5 0C7.21573 0 0.5 6.71573 0.5 15C0.5 23.2843 7.21573 30 15.5 30Z" fill="#1E2E36"/>
<path d="M19.383 14.8696C19.383 15.08 19.3064 15.2903 19.1534 15.4507L14.3386 20.4983C14.0324 20.8194 13.5358 20.8194 13.2296 20.4983C12.9235 20.1774 12.9235 19.6569 13.2296 19.3357L17.49 14.8696L13.2298 10.4034C12.9236 10.0823 12.9236 9.56188 13.2298 9.24094C13.5359 8.91969 14.0325 8.91969 14.3388 9.24094L19.1536 14.2884C19.3065 14.4489 19.383 14.6593 19.383 14.8696Z" fill="white"/>
</svg>
